<?xml version="1.0" standalone="no"?>
<!DOCTYPE svg PUBLIC "-//W3C//DTD SVG 20010904//EN"
 "http://www.w3.org/TR/2001/REC-SVG-20010904/DTD/svg10.dtd">
<svg version="1.0" xmlns="http://www.w3.org/2000/svg"
 width="1080.000000pt" height="1080.000000pt" viewBox="0 0 1080.000000 1080.000000"
 preserveAspectRatio="xMidYMid meet">

<g transform="translate(0.000000,1080.000000) scale(0.100000,-0.100000)"
fill="#000000" stroke="none">
<path d="M2410 8745 c0 -3 -441 -1496 -979 -3318 -539 -1821 -983 -3324 -986
-3339 l-7 -28 458 0 459 0 989 3333 c544 1832 992 3338 994 3345 3 9 -93 12
-462 12 -256 0 -466 -2 -466 -5z"/>
<path d="M3730 7885 l0 -825 2490 0 2490 0 0 -415 0 -415 -2490 0 -2490 0 0
-2075 0 -2075 2070 0 2070 0 0 825 0 825 -1250 0 -1250 0 0 420 0 420 2495 0
2495 0 0 2070 0 2070 -3315 0 -3315 0 0 -825z"/>
<path d="M8710 2905 l0 -825 825 0 825 0 0 825 0 825 -825 0 -825 0 0 -825z"/>
</g>
</svg>
